/* XPM */
static char *result[] = {
/* columns rows colors chars-per-pixel */
"50 50 237 2 ",
"   c #2A1B00",
".  c #342100",
"X  c #392600",
"o  c #343F08",
"O  c #432D01",
"+  c #4C3600",
"@  c #4F3900",
"#  c #453602",
"$  c #533B00",
"%  c #593E00",
"&  c #14550F",
"*  c #165A0F",
"=  c #185F0E",
"-  c #1B560E",
";  c #155611",
":  c #165C11",
">  c #185E11",
",  c #1B5710",
"<  c #1F4D0D",
"1  c #274C0C",
"2  c #38570C",
"3  c #31560D",
"4  c #17600F",
"5  c #19630F",
"6  c #1D6A0F",
"7  c #176211",
"8  c #1A6411",
"9  c #1C6B11",
"0  c #1E7312",
"q  c #246B0F",
"w  c #28640E",
"e  c #39690E",
"r  c #29740F",
"t  c #226512",
"y  c #296110",
"u  c #246C13",
"i  c #296D13",
"p  c #257213",
"a  c #2B7314",
"s  c #2E7A14",
"d  c #2B7618",
"f  c #2F7A19",
"g  c #267716",
"h  c #317615",
"j  c #327D16",
"k  c #347D19",
"l  c #3A7D1C",
"z  c #377715",
"x  c #367114",
"c  c #5D4300",
"v  c #5A4A03",
"b  c #42570A",
"n  c #464103",
"m  c #604500",
"M  c #644901",
"N  c #694D03",
"B  c #6C5103",
"V  c #6C5509",
"C  c #725401",
"Z  c #795D05",
"A  c #4D680C",
"S  c #5D770D",
"D  c #487913",
"F  c #577E13",
"G  c #6C6507",
"H  c #7C690A",
"J  c #6B780B",
"K  c #796B0B",
"L  c #815F00",
"P  c #846402",
"I  c #8A6A03",
"U  c #846804",
"Y  c #8A7808",
"T  c #9E7901",
"R  c #957303",
"E  c #A37D06",
"W  c #937E26",
"Q  c #348215",
"!  c #368219",
"~  c #3A851A",
"^  c #3D8B1B",
"/  c #388719",
"(  c #3C921E",
")  c #418D1D",
"_  c #498614",
"`  c #558115",
"'  c #42931E",
"]  c #4F9017",
"[  c #5F9118",
"{  c #688511",
"}  c #778E16",
"|  c #718B11",
" . c #458B23",
".. c #459421",
"X. c #4A9B22",
"o. c #489722",
"O. c #528927",
"+. c #51A523",
"@. c #97940E",
"#. c #939916",
"$. c #8B8F11",
"%. c #AC8804",
"&. c #B38C00",
"*. c #B48B05",
"=. c #AB9B0D",
"-. c #BB9201",
";. c #BA9208",
":. c #B69606",
">. c #A48513",
",. c #B79719",
"<. c #A79E1D",
"1. c #8AAB1F",
"2. c #BAA70C",
"3. c #BDA813",
"4. c #BDB11B",
"5. c #B79F29",
"6. c #AB9327",
"7. c #96B928",
"8. c #BBA936",
"9. c #BBA228",
"0. c #CA9601",
"q. c #C69C03",
"w. c #CB9B03",
"e. c #C29704",
"r. c #D19D04",
"t. c #C59F13",
"y. c #CDA205",
"u. c #CDA40D",
"i. c #D3A404",
"p. c #DAAA06",
"a. c #D4AA0B",
"s. c #DCAC0A",
"d. c #D5A609",
"f. c #DCB10E",
"g. c #C8A617",
"h. c #D7AD16",
"j. c #CAB71C",
"k. c #DAB314",
"l. c #D9B719",
"z. c #E1AF09",
"x. c #E4B40C",
"c. c #E9B70C",
"v. c #EABA0E",
"b. c #E7B508",
"n. c #E3B512",
"m. c #E6BA14",
"M. c #ECBD11",
"N. c #E4BB1B",
"B. c #E9BE1C",
"V. c #E1B318",
"C. c #F1BF11",
"Z. c #D5B726",
"A. c #C3AD33",
"S. c #D0B327",
"D. c #E4BC23",
"F. c #EEC114",
"G. c #EDC21A",
"H. c #EBC61E",
"J. c #F2C415",
"K. c #F3C61A",
"L. c #F6C91A",
"P. c #FACC1C",
"I. c #F7CB16",
"U. c #FDD01F",
"Y. c #D9C124",
"T. c #D1C930",
"R. c #EDC523",
"E. c #ECCC24",
"W. c #EBC32B",
"Q. c #E9C827",
"!. c #F3CB23",
"~. c #FACE22",
"^. c #F3CB2C",
"/. c #FED324",
"(. c #FFDB24",
"). c #F3D22B",
"_. c #FED52A",
"`. c #FFDA2C",
"'. c #F4D227",
"]. c #EDCD34",
"[. c #ECCC3A",
"{. c #E5C735",
"}. c #F3CC35",
"|. c #F3D434",
" X c #FBD732",
".X c #FFDC34",
"XX c #F1D33B",
"oX c #F5DB3C",
"OX c #FEDE3B",
"+X c #F4DA36",
"@X c #E7D732",
"#X c #FFE32B",
"$X c #FEE434",
"%X c #FFE834",
"&X c #FFE23C",
"*X c #FFE93A",
"=X c #F7E03F",
"-X c #C7BC4E",
";X c #D8C748",
":X c #DED255",
">X c #D6CC57",
",X c #F2D643",
"<X c #FADE4E",
"1X c #F7D947",
"2X c #F4D655",
"3X c #EAD14B",
"4X c #FEE443",
"5X c #FFE845",
"6X c #FFE64B",
"7X c #FFE94B",
"8X c #F0E141",
"9X c #FCE356",
"0X c #FEEC53",
"qX c #FEED5C",
"wX c #F8E65A",
"eX c #D4C961",
"rX c #F5DC6E",
"tX c #F8DA62",
"yX c #F2DE76",
"uX c #FDEE62",
"iX c #FDEC6B",
"pX c #F7EB6D",
"aX c #FCF166",
"sX c #FBF36C",
"dX c #FCE978",
"fX c #F9F571",
"gX c #FAF274",
"hX c #FAE887",
"jX c #FEF194",
"kX c #FFF088",
"lX c #FDF1A5",
"zX c #FEF5B4",
"xX c #FDF1B8",
"cX c #FCEEB1",
"vX c #FFFACA",
"bX c #FFFBD9",
"nX c #FEFBE5",
/* pixels */
"a k i ~ h ; 8 * 7 > 8 > s a j ~ k h a a  .t * 8 & 7 9 4 4 j a j k k j i j ~ > = 7 * 7 9 > 9 Q a Q k ",
"j j ! j p : 7 9 > * = : ~ k a a a k h k k 7 : > 9 ; * = u ^ a a k r k ) a a 7 > 8 7 * = ; f ! a t ~ ",
"j a ' Q 7 9 8 > 7 8 8 8 j ^ Q s Q r j +.a l O.O.x 9 7 8 9 / ^ s k j h ^ ' 8 8 9 7 : 9 4 9 i / / k j ",
"a / ^ j g 7 9 ; 9 p 7 9 d k Q ^ ) ) 7.T.8X6XqXqXpXyXeX8.=.@.$.[ ) Q / ^ s j 9 9 & 9 9 4 9 g s ~ ) ) ",
"k / k p 7 > ; 9 9 8 > : f / / ^ 1.@X5X5X5X5X7X7X7X0XiXjXhXW.b.b.y.| Q / a 8 = = 7 9 9 > > u ~ ~ ~ ' ",
"' ~ s k i > 9 8 8 7 7 7 i ~ ] T.$X&X&X&X*X5X5X5X5X7X7X0XgXxX2Xv.b.b.2.` k s > u > p > 9 : 8 ^ Q k a ",
"j k k Q u 8 7 > 7 > ; 7 u _ E.$X.X&X&X&X&X5X*X5X5X5X7X7X7XqXvXhXJ.C.v.x.| g 8 8 * > 7 & 7 u i ! a Q ",
"z ~ k / 9 > 9 > 8 8 > p D Y..X$X$X.X$X.X+X|.+X=X4X5X5X5X7X5X9XvXrXF.F.v.c.{ 7 5 ; 6 7 ; 8 d a / Q k ",
"' ) / j 7 8 8 > > 4 7 s j.`..X`..X).6.H U 6.8.9.3.S.4X5X5X5X6X0XbXtXJ.M.M.x.{ 4 ; 7 = > 0 f / ' ) j ",
"a s Q k > > 7 7 > : * #._.`.`. XS.P W >XpXfXfXfXpXeX5.[.5X5X5X6XiXnX^.I.C.M.h.D 7 : 7 & : q s i a r ",
"s ^ k a 8 = 4 9 : = F !._._._.>.V -XfXfXgXgXfXfXfXfXfX;XT.4X5X5X5XjXcXP.L.C.B.3.p * > 7 : s k j / a ",
"Q ~ ~ / p 4 7 9 : 9 j._./._.>.V :XsXfXfXfXfXfXfXfXfXfXfX:X{.4X4X6X6XvXtX!.K.J.B.| 7 7 0 7 9 k ^ ~ ) ",
"h a  .a t ; 7 > 7 ` /./._.g.N ;XqXaXaX:X8.8.A.A.:XfXfXfXgX:X].&X4X5XgXxX^.^.K.G.j.y 8 6 7 9 a ~ a h ",
"k a ' q p 8 ; 7 9 4.U./.B.Z 5.6X0X0XqX,XC C g.T.[.fXfXfXgXfX;X=X4X4X5XxX2X^.W.R.G.} 9 7 7 u ~ k q ^ ",
"a Q a s u > > 9 z L./.U.%.Y OXOX&X4X7XwXy.d.*X*X4XsXsXsXfXfXaX{.4X&X&XdXjX}.W.W.H.g.i 6 8 u ' h j j ",
"/ ' ' ! 8 8 8 8 #.P./.N.I h._. X$X$X&XwXp.a.&X*X8XaXsXsXsXsXsX:X&X&X&X<XlX}.W.R.B.N.D * > s / q o.Q ",
"u ! ~ ( ^ 7 9 8 j.P./.;.E /._.(.`..X.X6Xp.a.%X%X8XaXaXaXaXaXsXsX].&X&X&XkX2X}.D.D.V.$.; 7 i s p ~ / ",
"h ! a ! u & 7 y !.~.P.%.g.U.U./._.`. X1Xi.a.#X%X=X0XqXaXaXaXaXaX3X&X&X&XiXpXD.D.D.V.g.g > g / u Q k ",
"~ a ^ j p 9 9 ` /.~.m.E B.P./././._.`.1Xi.a.%X%X=X0X0X0XqXqXaXuXwX+X.X&X6XdXl.h.a.a.q.e * a k k t Q ",
"a ~ X.j 7 8 9 } /./.n.;.U.U.U.U.U._.`.,Xi.a.#X%X).7X7X0X0XqXqXqXqX]..X&X1XiXZ.h.u.y.q.A 9 a ) ' / ^ ",
"a Q s a g 7 7 <././.x.u./.(././.(./._.XXi.i.#X%X).4X5X6X0X0X0XqXqXXX.X.XOXuXZ.e.:.-.&.J 5 p s k ) ^ ",
"^ ' k a 8 > 7 Z._._.x.V././._./._.(.`.XXy.d.#X#X).OX4X4X5X7X7X7X0X+X.X.X.X6XZ.-.-.-.%.$.> t / Q ! ^ ",
"^ ! j ! i > t Y././.m.J././././._.`.`.|.i.i.#X#X!.&X&X&X4X5X7X7X7X,X.X X.XOXZ.&.&.%.%.Y 7 8 ^ ^ a u ",
"a ~ ! j u 6 t W./._.K.K.U.U.U./._._.`.].y.y.#X#X'.OX&X&X1X4X6X5X6XoX.X.X.X_.u.E T R R H > 8 a j a ~ ",
"~ ^ ~ / i 7 a H.~./.).P.P.P.P.P.U._._.Q.w.y.#X#X).OXOXOX4X4X1X4X4X1X X X.X!.;.I P L L G 8 s j / k k ",
"k Q / j > 4 u N.P._.<XI.J.J.J.I.P.P._.Q.q.y.(.#X).&XOX4XOXOXOX&XOXOX.X$X$XK.E M M M M v 9 p Q ' ^ j ",
"z Q Q a > = 8 l.L.~.9XP.C.F.F.J.I.L./.H.-.y.#X#X^.OXOXOXOX&XOXOX&XOX.X.XOXB.I + + + + # : a s i h s ",
"s ^ Q j 8 = 6 l.K.L.iX~.v.v.v.C.C.C.L.B.-.y.(.#X!..X.XOXOXOXOX&X&X XOXOXOXl.Z + + + + n 7 d ! ! j k ",
"k ! k ! p > 7 g.B.K.dX Xc.c.c.c.v.J.J.m.-.q.`.(.K._._. X.XOXOXOXOX_.OXOX.Xg.N O O O + o 7 9 ~ ^ Q ) ",
"k a ..a t : > $.C.C.dX<Xc.x.b.c.v.v.M.m.-.q.(.#XH.~.~._._. X XOXOX_. X.X.X,.+ . . . . o 4 u i k r Q ",
"h j ~ a g 9 = { M.C.tXiXn.z.z.z.x.x.c.n.-.q.(.(.J.K.L.P.~./._. X.X_..X X XR .         < 8 u ' ~ t ^ ",
"r Q ! a 8 5 ; D M.M.,XjXD.d.p.p.z.z.x.n.-.q.(.(.G.J.J.K.L.P.~./._._.`. X].B           < 7 i ^ i ^ a ",
"/ ' ../ g > 9 u k.v.J.lX,Xd.r.p.s.d.z.n.*.w.(.(.F.F.F.F.K.K.I.P.P._._.`.g.m $ @ + + # ; 8 ! ! f X.z ",
"w j h ( ~ > 9 > =.M.m.dXhXs.r.r.r.r.d.z.&.w.(.U.F.v.v.F.F.K.K.L.I././._.>.$ @ @ @ @ n 8 7 u f i j ~ ",
"a ^ k ~ d ; 7 7 { M.v.}.zX}.r.r.r.r.r.z.&.w./.(.G.c.v.M.v.F.J.J.P.P.P./.B + + + + + 1 7 ; ! o.u r ~ ",
"~ i ^ a 8 9 9 8 y f.v.M.hXhXh.r.r.0.r.B.e.0./.(.G.x.x.c.v.F.F.I.P.P.P.g.# $ + $ $ @ , : 7 p a ! j / ",
"a ~ ' Q u 7 8 ; 8 @.v.M.D.lX3Xr.0.0.0.2X<XXX$X.XH.s.f.b.c.v.J.I.P.P.L.Z + % % % % b 9 8 9 d ! ^ / ~ ",
"k Q j a 9 7 > 8 8 x n.v.v.2XlXW.r.0.0.S.3X3X,XXXF.p.s.s.x.M.I.I.K.I.h.O % % % m M i 9 > 7 u ! ! ! ) ",
"^ ^ k j 9 > 8 9 9 7 @.v.v.M.rXjXD.0.0.0.0.0.r.r.y.i.p.s.c.I.K.J.K.K.V + % % m m b p 8 9 > 8 ( j ~ k ",
"~ k k Q a 7 > : 8 8 e a.v.v.v.rXkXD.0.0.0.0.0.w.w.i.p.c.I.G.K.K.J.u.X c m m m v : 7 : > : 9 k ~ a a ",
"a ^ Q Q u 7 5 7 8 8 > | c.c.v.v.,XhX<XV.r.0.w.w.w.s.H.L.J.J.J.J.m.O $ m m m m y * 8 7 ; 7 t i Q j ~ ",
"' ' / ! t 7 9 7 8 8 7 g =.x.v.v.c.B.2XpX2XXXW.W.XX'.J.J.M.C.J.B.B O m m m m 2 8 ; 9 = 7 9 f / ^ / k ",
"h h k j = = 7 = > = * 9 z =.x.v.v.v.v.M.K.R.R.K.M.M.J.M.M.J.M.P X m m m m 2 = 8 7 * 5 ; 5 u Q j j r ",
"Q ^ ~ i 8 ; 8 9 ; & ; 7 ^ x =.x.c.c.c.v.m.M.v.v.v.F.M.M.M.m.H X m m M M b t ; 7 9 > > & * s s s ~ a ",
"s  .! / p = 7 9 > 9 9 > a ) _ $.s.c.v.v.v.v.v.v.v.M.F.v.u.m + B C C K D / s 5 7 9 > 7 0 7 p ~ ^ j ~ ",
"j j ^ k 8 * 7 4 8 8 4 9 i ~ k i S :.s.c.v.v.v.n.v.v.a.I % B P I K A ~  .~ u * 7 4 > 8 9 7 9 k ~ k Q ",
"j a ..p u > ; 7 7 8 7 9 i h ~ r k z S @.*.:.*.*.E U Z G K J { D ~ k i ^ k i > : 7 4 9 9 7 u a ~ a ~ ",
"h Q j p g 7 = 7 0 6 7 > ! ' i h i j s k i y 1 3 y p 8 4 t ' j u Q i j Q a p 8 * 7 9 9 8 > u X.a i j ",
"j ) ~ k > 7 7 8 6 ; 9 8 a ! i ..a ! / ) a > 7 8 = 9 & 8 u s a ~ ) a ~ ^ ~ 8 8 7 9 * 4 4 5 a ! i ( j ",
"r ^ ) / Q 7 9 8 * 9 ; 8 k ! j / / k ^ s ( g > 9 > = > > p ! s ^ a Q / ) ! ^ u 8 9 : 5 * 8 a k s ' s "
};
