/* XPM */
static char *d37a585fd635456582bb49326fed00f8Slc6fcNYeRnVE0fw[] = {
/* columns rows colors chars-per-pixel */
"50 50 195 2 ",
"   c #2C1702",
".  c #2D1903",
"X  c #251606",
"o  c #341B01",
"O  c #3C1F00",
"+  c #311E0B",
"@  c #281C10",
"#  c #0B2D08",
"$  c #0C270B",
"%  c #122B09",
"&  c #0D3209",
"*  c #0F3C0A",
"=  c #13350C",
"-  c #1A3D0E",
";  c #142D14",
":  c #112612",
">  c #1A3A1A",
",  c #2B2E05",
"<  c #3E2001",
"1  c #3F260A",
"2  c #2E3305",
"3  c #2B330A",
"4  c #2D3809",
"5  c #323506",
"6  c #353906",
"7  c #2E2011",
"8  c #2D261F",
"9  c #3B2C1B",
"0  c #36291C",
"q  c #203C15",
"w  c #1E3122",
"e  c #2D2824",
"r  c #2C2B2A",
"t  c #262524",
"y  c #332C24",
"u  c #223926",
"i  c #26372D",
"p  c #25392B",
"a  c #34312E",
"s  c #3D352D",
"d  c #2C3E35",
"f  c #363534",
"g  c #393734",
"h  c #383837",
"j  c #363A3D",
"k  c #3C3B3B",
"l  c #432201",
"z  c #4D2700",
"x  c #4F2800",
"c  c #41270C",
"v  c #42290E",
"b  c #4C2C0D",
"n  c #542A00",
"m  c #5A2D00",
"M  c #452C12",
"N  c #4A2F13",
"B  c #493116",
"V  c #4C341A",
"C  c #563717",
"Z  c #543A1F",
"A  c #41372C",
"S  c #42382E",
"D  c #483828",
"F  c #413E3C",
"G  c #4A3E32",
"H  c #11440C",
"J  c #134C0D",
"K  c #1E4B0E",
"L  c #14550F",
"P  c #165A0F",
"I  c #185E0F",
"U  c #184517",
"Y  c #1C4C1B",
"T  c #164614",
"R  c #155611",
"E  c #195415",
"W  c #165C11",
"Q  c #185E11",
"!  c #1E531C",
"~  c #214B0F",
"^  c #3D4209",
"/  c #22540F",
"(  c #244319",
")  c #21551D",
"_  c #22591D",
"`  c #17600F",
"'  c #19630F",
"]  c #1C6A0F",
"[  c #176211",
"{  c #1A6411",
"}  c #1C6A11",
"|  c #1E7211",
" . c #236A0F",
".. c #22670E",
"X. c #29740F",
"o. c #226513",
"O. c #2A6610",
"+. c #246C13",
"@. c #296D13",
"#. c #28651A",
"$. c #257213",
"%. c #2B7414",
"&. c #2E7A14",
"*. c #277618",
"=. c #2B7618",
"-. c #2F7A19",
";. c #257814",
":. c #307616",
">. c #327C16",
",. c #34741B",
"<. c #347D19",
"1. c #387F1C",
"2. c #2A4729",
"3. c #225221",
"4. c #2E4137",
"5. c #2F4238",
"6. c #32453D",
"7. c #34493C",
"8. c #36533C",
"9. c #38573A",
"0. c #5B442D",
"q. c #44413E",
"w. c #51453A",
"e. c #416D35",
"r. c #393E42",
"t. c #3C4244",
"y. c #3F464B",
"u. c #3D4D46",
"i. c #395742",
"p. c #3D6A43",
"a. c #434342",
"s. c #40464B",
"d. c #444A4E",
"f. c #4D4D4D",
"g. c #4B4743",
"h. c #514E4A",
"j. c #41544B",
"k. c #454D55",
"l. c #475057",
"z. c #475158",
"x. c #4B555D",
"c. c #4D5B5D",
"v. c #495156",
"b. c #525252",
"n. c #43634B",
"m. c #436644",
"M. c #4A6253",
"N. c #4B685A",
"B. c #4E7557",
"V. c #51725E",
"C. c #4D5760",
"Z. c #4E5961",
"A. c #525D65",
"S. c #545F68",
"D. c #526363",
"F. c #56626B",
"G. c #58646E",
"H. c #5B7763",
"J. c #5A6670",
"K. c #5D6A74",
"L. c #5F6D78",
"P. c #5E7173",
"I. c #616D77",
"U. c #606E79",
"Y. c #607376",
"T. c #64727D",
"R. c #64727C",
"E. c #358216",
"W. c #348315",
"Q. c #388517",
"!. c #398817",
"~. c #368119",
"^. c #368219",
"/. c #39861A",
"(. c #3A851B",
"). c #368A1D",
"_. c #3C8A1B",
"`. c #3E8A1D",
"'. c #3C8B1B",
"]. c #3C921E",
"[. c #408E1E",
"{. c #42931E",
"}. c #418D21",
"|. c #459421",
" X c #489722",
".X c #4A9B22",
"XX c #51A523",
"oX c #677581",
"OX c #687783",
"+X c #687782",
"@X c #697884",
"#X c #6A7985",
"$X c #6B7A86",
"%X c #6A7984",
"&X c #6D7C88",
/* pixels */
"%.<.@.(.-.R } L [ [ { Q &.&.>./.<.>.%.@.`.o.P } R [ } { ' E.%.&.<.<.>.@.>.(.I Q [ P [ } Q ] <.%.E.1.",
">.>./.&.+.W [ } Q R I Q ~.<.%.@.%.<.:.E.<.{ W Q [ R R R +.`.%.%.<.%.>.[.&.%.[ Q { [ P I R -.Q.%.../.",
">.%. XE.[ } { Q [ { { { >._.W.>.>.%.>.XX#.p.B.H.N.n.3.H Q ~.'.W.<.<.:.[.[.} { } [ Q } ' } $._.Q.>.>.",
"&.Q.Q.>.*.[ } R } $.[ } *.<.E.`.[.>.,.H.R.OXOXOX$X$X&XL.u - :.Q._.E.~.[.%.>.} } L { } ' } ;.=.(.[.[.",
"<._.>.$.[ Q R } } { Q W :.Q._._.,.m.c.T.#X#XOXOX#X&XOXL.l.j.( / (.<.<.(.%.{ Q I [ } } Q [ o._.~./.[.",
"{./.&.<.+.[ } { { { [ { %._.E.e.c.#XOXG.$XOX#XOX#XU.OXD.T.#XR.u.- O.<.>.E.&.Q +.Q | Q } Q { `.Q.<.%.",
"&.~.<.E.+.{ [ Q [ Q R [ +.@.c.T.I.G.G.v.K.+X+XOXS.S.Z.F.#X#X%X%XA.% K 1.&.*.{ { I Q [ L { +.@.~.&.<.",
">.~.<.Q.+.Q } Q [ { [ +.#.j.z.oXA.#X#XU.k.G.A.s.r.G.Z.R.#X#X$XT.k.Z.q ~ >.%.[ { R } [ R { *.%.Q.W.1.",
"{.[._.>.Q [ { Q Q ' [ } M.$XoXZ.Z.#XU.j X o o o O o X f J.#X+Xl.U.#XL.( K ' Q ' R [ I Q | -.!.{._.>.",
"%.:.>.<.Q ' [ { Q W P 8.#X$XOXOXC.C.7 O o o l O z l z l + d.l.x.G.K.G.y.- H I [ [ I [ L Q  .>.+.%.X.",
"&.[.<.%.{ Q ' } [ P 3.L.OXOXOXOXr.o o l l z n x m n m n z z e I.$XT.J.T.7.= J [ } Q [ [ [ =.:.<.Q.%.",
"W./.~._.$.' [ } Q [ 7.S.oX#X#Xx.o O O z n n n x m n m n x m n g OX#XA.F.t.= * { ] [ ' } [ } ^.`.~.[.",
":.%.}.:.o.R [ R [ E P.L.F.F.G.@ l O z n n n n x m n m x x m m l l.S.k.F.+X7.# J Q P [ ] Q +.&.~.%.>.",
">.%.{. .$.{ R } } 8.%XOX#XL.e o l z n n n n n z m n m z x m n x + A.+X+X+XD.# * [ [ } { [ } ~.<. ._.",
"%.W.%.&.+.Q Q { [ D.R.#X#XL.X o z m n n n n n x m n m n n m n x n s.#X#X+XU.; * [ [ } ] } +.{.&.<.>.",
"Q.{.{.~.{ [ { { L c.F.OX#Xx.O o n n n x n n m n m n m n x m n x m y #X+XU.x.u & [ [ ' P Q -.Q.@. X~.",
"+.~.(.].).[ } ' T G.x.I.U.k O O m n n n n n n x m m m m z m m x m + U.I.A.J.4.& I P P R [ $.>. .!.Q.",
"&.~.%.~.+.L ' P Y I.Z.T.T.F O o m m n n n n n x m n n m x m n x n M T.T.T.T.4.# L I Q $.I $.Q.+.E.<.",
"(.%.`.&.$.} } [ Y %XJ.T.OXa.O O m m n n n n n z m n n m n m m x m B #X#X#XoXd & R R W P P =.<.>...~.",
"%.(..XE.[ { } Q ) %X+XG.S.g O l m m n m n n m z m m m n n m n x m V $XOX#XOX5.& J I } P } %.[.{._._.",
"%.~.>.%.*.[ { R ) T.#XK.#Xy.e y S A S A A s g A A A A A A A A s A s oX#X#X#X6.& J } } [ { *.&.<.`.`.",
"_.[.~.$.{ Q [ | ! I.U.x.L.y.h a.b.h.h.b.f.f.b.f.b.f.f.b.f.b.f.f.b.r.U.K.U.I.d # I } [ [ Q o.'.>.~.`.",
"_.~.>.~.%.Q { Q ' A.K.G.L.r.t h t.j a.r.k a.j a.r.k a.h a.F h a.j f G.G.G.F.i & J | Q } [ { (._.%.+.",
"%./.~.>.+.' ' Q I P.#XOXOXa..   l l O < 1 O < O < O 1 < o c O O O 9 #X+X#XoX6.& J [ Q R [ { %.E.%.~.",
"[.!._.Q. .[ } I ' c.G.G.J.g O l m m n n n n m z m n m n x m n x n c G.G.S.S.i & J | Q Q { -.>._.E.<.",
"<.<.!.%.{ ' ' Q P Y.%X#X%Xa.O l m n m n n x m z m n m m x m m x n B $XOXL.#X6.# J R ' P } %.E.{._.>.",
">.>.>.:.Q Q [ [ R F.U.I.R.F O O m m n n x n n z m m m m x m n x m N L.A.U.S.6.# L W I L R ;.&. .>.&.",
"&.[.Q.>.o.Q [ ] U I.U.I.Y.k O l m m n m n n m z m m m n x m n x n M G.G.A.C.: & } R [ ] ' *.<.~.>.>.",
"<.1.~.~.$.I [ } Y #X#X#XoXF O < m m m m n n m z m n m m x n z l m B #XJ.J.G.; & [ Q [ } [ { (.[.<.[.",
"<.%. X%.o.R Q Q ) $XOX#X+XF O < m m x m n n m z m x m m x G g.h.z c C.A.G.k.$ & W W { } [ +.%.<.X.E.",
":.>.(.$.;.] P [ Y U.+X+X+Xg.O < m m m m x n m z m m m m Z A y 9 A N &XOXOXL.; & [ } | { { +.|./...[.",
" .W.Q.%.{ [ W [ ) oX+XoXoXq.O l m m x m n x m x m n m m G C m x w.M OXoXoXL.; # [ [ } ' [ +._.@.(.%.",
"!.{.{.(.;.R } [ J A.J.J.J.g l O m m m m n n n z m n m n b w.b D V c J.I.K.G.i # I R { I [ ^.^.>. X>.",
" .<.:.}.(.[ } [ R Y.OX$X#Xa.O l m m n m n n n z m n m n x m Z N m B $XOX#X#X6.& L R Q { Q +.>.+.<.(.",
"%.`.<._.*.R Q [ R Y.+X$X%Xk O O m m n n n n n z m n m n x m n z n V #X#X#X#X6.# L [ L [ L E.|.+.@.!.",
"~.%._.%.{ } } { Q K.OXOX%Xa.O l m n n n n n n x m n n n x m m z n V $X#X#X#X6.& I Q Q P [ %.%.E.<._.",
"X.!.{.>.$.[ } R [ J.oX+X+Xs.r g F F F F F F F F q.F k F F F F F F k oXS.U.OX6.& H { } [ } *.~.`.~.!.",
"<.~.>.%.} [ Q { E Z.F.G.F.j g a.h.d.b.b.d.f.f.f.b.h.f.f.f.b.f.f.b.j J.A.K.S.w # R } } Q [ +.<.(./.[.",
"'._.1.>.} Q { { _ %XOX#X#Xy.t a f f f f g j f g g f g f h g f h f r.OX$X$XOXi & Q $.{ } Q { [.&.<.~.",
"/.<.>.~.@.{ { Q Y K.K.K.K.g     l l l l l l l O z O l l O l l O l M OX#XOXOXu & L } Q [ Q } >._.%.%.",
"%._.>.E.+.[ ' [ Y Y.U.G.T.F O l m m m m n n n x m x m n z m m n m V #X#X#XOXu & R [ [ R { { @.Q.>.(.",
"{.].`.E...[ } [ ) T.G.J.J.a.o l m m m m n n m z m n m m z m m z n V +XU.oXoXu & R } I [ } -.Q.]./.<.",
":.:.<.E.Q I [ Q T A.S.I.S.a O l m m n m n n n z m m m m z m m z n 1 S.k.F.A.w & L P ' R ' $.E.>.>.X.",
"E._.(.@.{ R { } Y #X&X$X+Xa.O l m n m m n n n z m m m m n m n z n V #X#X#X+X6.& L Q Q L Q &.&.X.~.&.",
">.[.~.Q.$.I [ ] Y oX#X#X#Xg.O l m m n m n n m z m m m m z m n z n M G.J.J.J.d & I Q [ | ' +.(.].>./.",
">.>.`.<.} R [ [ 3.#X#X#X#Xa.O O m m n m n n n z m m n m n m m z n N +XT.T.T.d # L Q { } [ } <.~.<.~.",
">.%. X+.+.[ R { Y +XI.U.+Xq.O l m m n m n n m z m n m m n m n n m V #X+X#X+X6.# L Q } } { +.@.(.X./.",
":.W.>.%.%.[ I { E i.2.i.n.2.3 4 5 2 6 6 2 , , , 5 2 2 3 , ^ 5 5 6 3 9.9.8.8.> & R } } { Q +..X%.@.<.",
">.[./.<.I [ [ { ] R } o.%.E.+.|.%.~._.`.+.[ [ [ Q } L ] +.&.&.<.}.:.~._.!.{ { { } R [ ' ' %.E.+.{.<.",
"%._._.).W.[ } { I } R { <.E.&.`.Q.-.`.E.].;.Q } Q I [ Q +.^.>.`.%.E./.[.~.'.+.{ } W ' R [ -.E.%.{.&."
};
