/* XPM */
static char *result[] = {
/* columns rows colors chars-per-pixel */
"50 50 50 1 ",
"  c #14550F",
". c #165A0F",
"X c #185D0F",
"o c #155610",
"O c #165C11",
"+ c #185E11",
"@ c #17610F",
"# c #19630F",
"$ c #1C690F",
"% c #176211",
"& c #1A6411",
"* c #1C6B11",
"= c #1E7111",
"- c #22670E",
"; c #246B0F",
": c #286F0F",
"> c #29720F",
", c #216513",
"< c #246C13",
"1 c #296E13",
"2 c #257214",
"3 c #2B7414",
"4 c #257814",
"5 c #2E7A14",
"6 c #267418",
"7 c #2B7618",
"8 c #2E7A19",
"9 c #307616",
"0 c #327C16",
"q c #317619",
"w c #337D19",
"e c #387F1C",
"r c #2E8118",
"t c #358216",
"y c #388517",
"u c #368817",
"i c #398816",
"p c #368219",
"a c #39851B",
"s c #368A1D",
"d c #3C8A1B",
"f c #3D911C",
"g c #408E1E",
"h c #43931E",
"j c #418E20",
"k c #459421",
"l c #489723",
"z c #479822",
"x c #4A9B22",
"c c #51A523",
/* pixels */
"3w1aqo&.&&&&535yw031d,o* &*&@030w09:0aXX% %=+,t3tw",
"00p52O%*Ooo+aw333w9pw&+%&o +<d33e30g3q%+*% .o8p3<y",
"03lt&*&+&&&&8dt0t>0c<%&&+*%%*pd5wt3gg&**&+*#*2dt00",
"5yy06%*o*=+*7wtdg0dwt**+%**&<3idaepd50&* **#*75agg",
"wyw2%+o***OOqyaatepw-+++**+++pdwkw0g3*X+%**++<dypg",
"hy0w<&*&&&&%3dip:dy3p&&&*O*+%edpwtw0w5+*+=+*O&dte3",
"0wwt1&&o+OO&<30309d00,*.O&o%&353090d53&&.+%.&&3p3t",
"wp0u,%*%&&+<30t3pgwtt&&%*O+&1<ttq3hat2&&o*+o&73pte",
"hgi0+&#++@%=rdz5ykda3&&#%+%*2pdk0hhkw,&&o%XO=0thd0",
"990w+%&&OOo*33;3330d1.+&%& o*35;3::3d&o&%O%oO<0<3>",
"5gt3&X&*OX%+p5wp30yp,&&&%& &<t5t00d9t<+%=O+&%50wy3",
"wppd2#%*+*&%1dg0pdwpd*&#*&*&*3lpdwddy5&%$%&*%*pdpg",
"01j3,o%o%%X&1pw33t3j3&OOo**.*7w3010dp, OX &$O<7p30",
"w3h;2&o**&+*3p0<p03g,=+O&*++<8p1pw1y0<*X%%*%%<pw-d",
"3i35<O+&*#=&0dqy1>t33++%%=**&g00y1t53<+O%&*=&2h5w9",
"yhhw&&&&@@@*8p3lwihl6&&&+&o+1w0adtdzd<*&*@# +0t1ly",
"<pajd%*$.+o@551df10pk7%*X ++*w309t3wdk*** Xo&<5;ai",
"3p3p< @ %+=+50303yw<d+ # %$#&p30w3y07w  #%+=+2s<tw",
"d3d5=**%o+.+tw535y;h5**&%%o.<y03wpwat2*=&++X.30t-t",
"3axw&&*o&*X*8kday9gx2+*&%&&&*yhiy3ald,&*+@*o*7ghyd",
"5p536%&+*=&&75wdd0y33<%+&**&*7weapty<8&&o**&*23wgj",
"yhp3&+%=%%&o0tag0gdt,%+&=&+&Oaywktaa5*%#**%@+&dwwd",
"dp0w3+&+*&&&<di3;0y9y<&&%&*o*0dt<t0www+,+=+*&&ad3<",
"3yp0<&%&+O+%1>0300g05&*o&+o+&;09w3pd03&&o%+oO*3p3p",
"aday<&*+%&@63pd:ahdat*%%*+@&63dp3ahhy>&&O=+X&50d0p",
"ett0&##.X%%*5uh03ppy<X@X%%o*<5dh000d0,+#  %o*3thg0",
"0tw3+X&&o o&r2<0w0pa<o%*%& +$52300p3p&O&&+X o43<95",
">gy0&%&&++$+5tyw00yp3&%*X%+#1tp0y3dwt<&&=O%*%5tp00",
"wepp2&&*%*&*1kd3yd0pp<&%*&*&*7lwywgap3%%%+%*%*ajwg",
"w3k3,o+.&%X&<3033p3k1++oo&*o<135w33gw<o+%+&*X<1w>t",
"90a14*.*****0j01a99d,=&+*=&&$pk1t03t52=X&%*&&<ha-g",
";ip3&%o%*&&&7a9g;;tt<#.%%=#&&d3wt39y8,#O&%**&<d1a3",
"yhha4o*&o*+,pawkyahgt*+*+@+%5pwg0ykxpr&&*O&+&pp8x0",
";wqga%*&+++@58<yy;3pk7%*o+&+#t630013dk*&&OO&+<w<wa",
"3d0d3o+&% %+dd1000iwd& +&o+.<ht2e3datrOo&&o& rh<1a",
"p1d3&**&+.X+53tw0e1h,***&%o&,03pyw0d0&***++o&33twi",
"5yht2%*o*=%*8d0aa0gg8**o+**&2whppeyhy5&*o&*&*7pdya",
"0t03*%O&**+&3waay0y02%++**&+%8dwgtwd1<%+&**+&<wapd",
"gde0&O&**%&O7apd3dpp3%&&=%&+Oappayw0p2+&&=+*o&d0ye",
"p0ww7&XO&&o&1yy33wyqa&&X%%&o*7p01w9aw8+&o&+&&*wd33",
"3att,&#%&&%&15t3eypwt&* #+o&,<50a1gat2%$o*%o%<<t0a",
"lfdt,%*&&&%68dh<alha0,&&*@*&6tdd9ghxt<&&+*O#*8ddyw",
"30wwX#&@OO &3t05;9wp3 #&#& +<5tt9<30t,+%+O#o%;00w3",
"wdy1&o&%OoO%t:0t00dp,O&&%% +*t,t0yy0w&+%&%O @555y3",
"0hpy2#@*%&*&3dd0wyywt**##&**<7zea9hiy5&&*+&=#<sd0y",
"09dw&X&&&&&&1de70d0j0&+%%&*%<3d0e3aga<o&%+&*%*0awy",
"03l<,#o%&&&*<3p3w03k<&+o%*&+<1w9we;g0<++%@*&&<1a2a",
"9t036&@%=&&+ph33300t1*.%%=#&&hw1y:0w22* %***+1x310",
"0gyw+&+&#.*,3p1k3pdd1%&%X* &<53pg9pda&&&*.%#&3p<h0",
"3ygst&*&.*o&rp5dt5dpj4+*+@@+2p0d>0igpf<&*o# &3w5h5"
};
