/* XPM */
static char *result[] = {
/* columns rows colors chars-per-pixel */
"50 50 161 2 ",
"   c #010100",
".  c #0B0000",
"X  c #030B02",
"o  c #080B0C",
"O  c #140000",
"+  c #1C0000",
"@  c #051304",
"#  c #081704",
"$  c #071D06",
"%  c #091B05",
"&  c #0B0E10",
"*  c #0E1315",
"=  c #101618",
"-  c #151C1F",
";  c #230101",
":  c #2C0000",
">  c #370201",
",  c #3B0100",
"<  c #0A2306",
"1  c #0C2907",
"2  c #0C2D08",
"3  c #112B07",
"4  c #122D08",
"5  c #0D3309",
"6  c #0E3A0A",
"7  c #14360A",
"8  c #153A09",
"9  c #151D20",
"0  c #192024",
"q  c #1F292D",
"w  c #1D262A",
"e  c #232F34",
"r  c #263439",
"t  c #440000",
"y  c #4C0000",
"u  c #550101",
"i  c #5B0101",
"p  c #640101",
"a  c #6B0201",
"s  c #730101",
"d  c #7C0202",
"f  c #0F430C",
"g  c #12430B",
"h  c #1B420B",
"j  c #124B0D",
"k  c #1C4E0D",
"l  c #14540E",
"z  c #165A0F",
"x  c #185D0F",
"c  c #155610",
"v  c #165C11",
"b  c #185E11",
"n  c #21560E",
"m  c #22590F",
"M  c #255410",
"N  c #235C11",
"B  c #285D11",
"V  c #17600F",
"C  c #19630F",
"Z  c #1D6A0F",
"A  c #176211",
"S  c #1A6411",
"D  c #1C6B11",
"F  c #1E7211",
"G  c #23640E",
"H  c #236A0F",
"J  c #29730F",
"K  c #226513",
"L  c #2A6413",
"P  c #246C13",
"I  c #296D13",
"U  c #247213",
"Y  c #2B7314",
"T  c #2E7A14",
"R  c #267618",
"E  c #2B7618",
"W  c #2F7A19",
"Q  c #257814",
"!  c #307616",
"~  c #327D16",
"^  c #307719",
"/  c #347D19",
"(  c #387F1C",
")  c #2C3C42",
"_  c #304047",
"`  c #32434A",
"'  c #374A52",
"]  c #3A4E55",
"[  c #3E535C",
"{  c #425962",
"}  c #475F69",
"|  c #47606A",
" . c #4A646E",
".. c #4E6974",
"X. c #506C77",
"o. c #516D78",
"O. c #56747F",
"+. c #830201",
"@. c #8C0201",
"#. c #940101",
"$. c #9D0101",
"%. c #A40302",
"&. c #AC0201",
"*. c #B40202",
"=. c #BC0101",
"-. c #C50000",
";. c #CE0000",
":. c #D40302",
">. c #DA0302",
",. c #E40403",
"<. c #EC0504",
"1. c #F40604",
"2. c #FF0705",
"3. c #348216",
"4. c #388617",
"5. c #368817",
"6. c #398817",
"7. c #368219",
"8. c #3A851B",
"9. c #368A1D",
"0. c #3C8B1B",
"q. c #3C921E",
"w. c #408E1E",
"e. c #42931E",
"r. c #418D21",
"t. c #459421",
"y. c #489722",
"u. c #469821",
"i. c #4A9B22",
"p. c #51A523",
"a. c #577581",
"s. c #5B7986",
"d. c #5E7C89",
"f. c #6B8E9C",
"g. c #779BAB",
"h. c #7296A6",
"j. c #7BA2B3",
"k. c #82AABC",
"l. c #84AEC0",
"z. c #8AB5C7",
"x. c #8FBBCE",
"c. c #90BACD",
"v. c #8FBCD0",
"b. c #93BFD2",
"n. c #94C1D5",
"m. c #9DC5D6",
"M. c #97C6DB",
"N. c #98C7DC",
"B. c #9DCADE",
"V. c #A3C8D9",
"C. c #A3CDE0",
"Z. c #ABD2E2",
"A. c #BADAE7",
"S. c #BDDBE8",
"D. c #CBE3ED",
"F. c #D5E8F0",
"G. c #DEEDF3",
"H. c #EFF7F9",
"J. c #E3F0F5",
"K. c #F5FAFB",
"L. c #FCFEFD",
/* pixels */
"Y / I 8.^ c S z A A S b T Y ~ 8.^ ~ Y Y 0.P z D l A D S A 3.Y ~ / ^ ! I ! 0.b z D z b F b D / Y 3.( ",
"~ ~ 7.T U v A D b c x b 8./ Y Y Y / ! / / C c A D c c c P 0.Y Y / Y 4.w.Y Y A b A A z z c W 7.Y H 7.",
"~ Y y.3.A D S b A S S S ~ 0.3.T 3.J ~ p.Y z g < @ @ @ $ 2 k 3.T / 3.! 0.e.S S D A c D V D Y 0.4.~ ~ ",
"T 4.4.~ R A D c D U b D E / 3.0.w.~ 0./ k X   o ; ; + O       3 L / 7.0.T ~ D D l D D C D R Y 8.w.w.",
"/ 6./ U A x c D D S b b ^ 4.8.0.4./ 8.h   O d >.2.2.1.>.=.+., .   7 Y 0.Y S b x S D D b b P 6.8.8.w.",
"e.8.T / I A D S S S A A Y 0.6.8.J 0.M   : -.2.2.2.2.2.2.2.2.2.*.,   # L 7.~ b D b F b D v A 0.4.3.Y ",
"~ / / 3.P S b b S b c A P Y ! Y ! L   O >.2.2.2.2.2.2.2.2.2.2.2.1.+.  X I Y S S b b A l A D E 7.! / ",
"/ 7.~ 7.P A D b A S A U I ~ 3.Y 7.#   *.2.2.2.2.2.2.2.2.2.2.2.2.2.2.+.  1 P S S v Z b c S Y I 8.3.( ",
"e.w.6.~ A A C b b C A Q W 6.u.T B   i 2.2.2.2.2.2.2.2.2.2.2.2.2.1.2.2.u   8 A S z A z b F W 8.e.6.~ ",
"Y ! 3./ b A S S b c l A Y T H T #   :.2.2.2.2.2.1.:.#.p y , : ; ; ; : ,   @ c A A z D l z H ~ H ! J ",
"! e./ Y S b C D b z V A 7.T 3.L   , 2.2.2.2.1.d ;       X * 0 q e q 9       $ l D b b A A E ~ / 4.Y ",
"3.7.7.0.U V A D b S D A P 0.r.7   $.2.2.2.2.d   = [ f.h.l.z.x.m.V.m.c.k.s.e   X z A A F S D / w.7.w.",
"! Y r.! K l A c A S x S I 7./ X O :.2.2.2.:.. * } n.N.N.M.C.G.K.K.K.H.G.S.b. .  # l S Z b P Y 7.Y ! ",
"! Y e.H U S c D D S z P Y 7.L   y :.2.2.2.@.  `  .z.N.N.N.Z.L.L.L.L.L.L.L.F.n.]   j D A A D 7.7.H 0.",
"T 3.Y T P b b S D C F A / 6.h   #.>.2.2.2.a   {  .h.N.N.N.M.Z.G.L.L.L.L.L.J.M.g.  < D Z S U e.! ~ Y ",
"4.e.e.7.S A S S V V z l g 7 X   -.,.2.2.2.i X }  .o.b.N.N.M.M.M.B.S.D.D.S.B.M.x.* @ C z b / 7.H i.4.",
"P 7.8.q.9.C D C 6 %   X       + ;.,.2.2.2.a X {  . .f.M.N.N.N.N.N.N.N.N.N.N.N.l.= X c c A I T U 0.6.",
"Y 8.Y 7.P l V j     ; a *.*.  , ;.,.2.2.2.+.  ]  . . .f.b.N.N.N.M.M.N.N.v.j.d. .= X c D b U 5.P / ( ",
"0.I 8.W U D D 2   &.2.2.2.=.  i ;.,.2.2.2.*.  q  . . . . .X.a.s.d.s.a... . . .| o X c c z T / ~ H 3.",
"J 8.i.3.b D S X O <.2.2.2.%.  s ;.,.2.2.2.<.: X ]  . . . . . . . . . . . . . .'   < D b D Y w.e.0.6.",
"~ 3.T Y R A c   p 1.<.,.,.+.  @.;.,.2.2.2.2.*.. o r {  . . . . . . . . . . .[ *   l D A S R T / 0.w.",
"8.e.7.Y S v 6   #.;.;.;.;.p   $.;.>.2.2.2.2.2.%.;     9 e ) ) ] ] [ ] ' ) q &   5 D A A b K 0.~ 7.0.",
"6.7.^ 7.Y b 5   &.;.;.;.;.u   *.;.:.2.2.2.2.2.2.,.+.> &         X               l F b Z A S 0.0.Y P ",
"! 8.7.~ P S $ . =.;.;.;.;.y   -.;.:.2.2.2.2.2.2.2.2.2.<.:.&.@.s p i p d $.:.u X l x b c A S I 3.Y 7.",
"0.6.6.7.U A X O -.;.;.;.;.y   -.;.;.2.2.2.2.2.2.2.2.2.2.2.2.2.2.2.2.2.2.2.2.u X l F b z S E / 0./ / ",
"( 3.4.! b A X + -.;.;.;.:.,   :.;.;.1.2.2.2.2.2.2.2.2.2.2.2.2.2.2.2.2.2.2.2.t X l c C v D Y 3.e.w.~ ",
"! 3./ Y b l X ; ;.;.;.;.;.,   ;.;.;.<.2.2.2.2.2.2.2.2.2.2.2.2.2.2.2.2.2.2.1., X A v V l z U T H ! T ",
"J e.4.~ K z X + :.;.;.;.;., . ;.;.;.>.2.2.2.2.2.2.2.2.2.2.2.2.2.2.2.2.2.2.<.: @ F c S Z C E ~ 7.~ ~ ",
"/ ( 7.7.U z X + :.;.;.;.;.,   ;.;.;.;.1.2.2.2.2.2.2.2.2.2.2.2.2.2.2.2.2.2.<.O @ S A S D A D 9.r.~ w.",
"/ Y t.Y K c X + -.;.;.;.;., . ;.;.;.:.,.2.2.2.2.2.2.2.2.2.2.2.2.2.2.2.2.2.>.  $ A c S D V P I ~ J 3.",
"! ~ 8.Y R S X O -.;.;.;.;.t   :.;.;.;.;.1.2.2.2.2.2.2.2.2.2.2.2.2.2.2.2.2.*.  < A D F S C I e.8.H w.",
"H 3.8.Y C A @ . =.;.;.;.;.y   -.;.;.;.;.:.2.2.2.2.2.2.2.2.2.2.2.2.2.2.2.1.#.  1 A A D S A I 0.I 8.Y ",
"6.e.e.6.R c 1   *.:.;.;.;.y   =.;.;.;.;.:.:.1.2.2.2.2.2.2.2.2.2.2.2.2.1.:.+.  5 D b S z S 7.7.^ i.! ",
"H / ^ w.9.b 5   %.;.;.;.;.i   &.;.;.;.;.;.;.:.>.1.2.2.2.2.2.2.2.2.2.1.:.;.a   g D v b A A H ~ I ! 8.",
"Y 0.! 0.Y c 6   @.:.;.;.:.p   $.;.;.;.;.;.;.;.;.;.:.,.<.1.1.1.<.,.:.;.;.;.i   g A V c A z W e.U J 8.",
"4.Y w.Y S D l   a -.;.;.;.s   +.;.;.;.;.;.;.;.;.;.;.;.;.;.;.;.;.;.;.;.;.;.t X z D b b z A Y Y 3./ 6.",
"J 8.e.3.U A C   , -.;.;.;.+.  s ;.;.;.;.;.;.;.;.;.;.;.;.;.;.:.;.;.;.;.;.-.: X A c S D A D E 7.0.7.8.",
"! 7.~ Y D A c @ . +.=.-.=.+.  i ;.;.;.;.;.;.;.;.;.-.-.-.-.-.-.-.-.-.;.;.=.O @ b A D D b S P 7.7.7.w.",
"e.w.( ~ D b S j X   O ; +     y ;.;.;.;.;.;.;.;.+.: ; : : > : : y *.;.;.&.  $ A A U b D b S w.~ / 4.",
"4.! ! 7.I S S b j < @ X # <   , ;.;.;.;.;.;.;.;.:           y d =.;.;.;.#.  2 D c S b A b P ^ 6.Y Y ",
"Y 0.~ 3.P A S C A S b S P Y   ; ;.;.;.;.;.;.;.-.O X l z $   -.;.:.;.;.;.s   8 D z D A l S K I 3.~ 0.",
"t.e.6.7.K A Z b A Z A R W 0.% . ;.;.;.;.;.;.;.=.. @ S A 2   *.;.;.;.;.;.i   j S c D z A D W 7.q.4./ ",
"Y ~ / 3.x V A A b z z D U 3.4   =.;.;.;.;.;.;.=.  < c v 5   @.;.;.;.;.;.,   j A A z C c A H 3.~ / J ",
"/ 0.8.I S c S D v l v b 5.Y 8   $.;.;.;.;.;.;.*.  1 l b 5   s ;.;.;.;.;.+ @ b A D v b z V T T T 4.Y ",
"! e.7.4.U x V Z b D D A Y 0.L   s :.;.;.:.-.;.&.  2 D D h   i ;.;.:.;.-.  3 C S D b A F C U 8.0.~ 8.",
"~ ~ 0./ D z A A A S C A P 0.I   ; d $.&.&.&.#.i   5 D b c   : p p p i t   7 z b A b S D A D ^ 8./ 4.",
"~ Y y.I P z b S S S b D I ! ( @       . O .       g S b C X             X x b b A C D S A P Y 8.U 8.",
"! 3.~ U R A z A D Z D b 7.e.I ! B h 8 3 < < 1 f b F C S x w.L N L n m Y Y U S z A D D D b P i.Y I ~ ",
"~ w.8./ x A A S C x D K Y 7.I e.Y 7.6.w.I C A A z D x S P T Y 7.e.Y 7.0.0.K S A D z b V C Y 3.I q.~ ",
"J 8.w.9.5.b D S z D c S W 7.W 0.4.~ 9.3.q.R b D b x x b P 9.~ 0.Y 3.6.0.7.9.P S D v C c S E / T e.T "
};
