/* XPM */
static char *fe91127bf35d4038a6a3fae98756d91fJWVENokbU8yzWn55[] = {
/* columns rows colors chars-per-pixel */
"50 50 135 2 ",
"   c #16151C",
".  c #19171E",
"X  c #1B181F",
"o  c #1A1720",
"O  c #1D1A21",
"+  c #221E24",
"@  c #252126",
"#  c #292326",
"$  c #262229",
"%  c #2B252A",
"&  c #2E282D",
"*  c #30272B",
"=  c #322B2D",
"-  c #392F2E",
";  c #3C312E",
":  c #2F2930",
">  c #352D32",
",  c #382F32",
"<  c #373035",
"1  c #3B3235",
"2  c #3D3539",
"3  c #423535",
"4  c #443836",
"5  c #4B3B36",
"6  c #413739",
"7  c #443A3B",
"8  c #4B3D3C",
"9  c #503F3C",
"0  c #4E413D",
"q  c #50403C",
"w  c #53433C",
"e  c #52433D",
"r  c #50403E",
"t  c #56443D",
"y  c #53433E",
"u  c #5A463E",
"i  c #57483F",
"p  c #5C4A3F",
"a  c #614A3F",
"s  c #453B40",
"d  c #493D40",
"f  c #4B3F41",
"g  c #4C3F40",
"h  c #4D3F40",
"j  c #4B3E40",
"k  c #4F4141",
"l  c #4D4142",
"z  c #4E4141",
"x  c #514040",
"c  c #504140",
"v  c #524040",
"b  c #534140",
"n  c #514240",
"m  c #544340",
"M  c #554241",
"N  c #534541",
"B  c #564441",
"V  c #554643",
"C  c #574642",
"Z  c #544441",
"A  c #584441",
"S  c #5A4641",
"D  c #5B4642",
"F  c #594642",
"G  c #574842",
"H  c #5A4840",
"J  c #594943",
"K  c #5B4B43",
"L  c #5C4941",
"P  c #5D4A41",
"I  c #5E4A41",
"U  c #5E4843",
"Y  c #5D4C44",
"T  c #5E4C44",
"R  c #5C4A43",
"E  c #614A43",
"W  c #624B43",
"Q  c #614D44",
"!  c #614F46",
"~  c #644E44",
"^  c #634E45",
"/  c #684F46",
"(  c #644E48",
")  c #625143",
"_  c #635045",
"`  c #655246",
"'  c #655145",
"]  c #6A5245",
"[  c #6A5546",
"{  c #6A5346",
"}  c #6E5A45",
"|  c #6F5847",
" . c #66514A",
".. c #685348",
"X. c #6A5448",
"o. c #6B5548",
"O. c #6B5549",
"+. c #6D5548",
"@. c #6D544A",
"#. c #6D554A",
"$. c #6F564A",
"%. c #6E574A",
"&. c #6F574B",
"*. c #6C5449",
"=. c #715A46",
"-. c #725B46",
";. c #705549",
":. c #71564A",
">. c #755C4B",
",. c #73594C",
"<. c #74594C",
"1. c #75594C",
"2. c #755A4C",
"3. c #765B4C",
"4. c #765B4D",
"5. c #745A4B",
"6. c #785F4B",
"7. c #7B5F4D",
"8. c #7C5E4F",
"9. c #7A5E4C",
"0. c #7F5F50",
"q. c #7A614B",
"w. c #7C624C",
"e. c #7D614C",
"r. c #805F50",
"t. c #80644E",
"y. c #86654F",
"u. c #81654D",
"i. c #87684E",
"p. c #83684C",
"a. c #8D704E",
"s. c #876550",
"d. c #876650",
"f. c #836351",
"g. c #886553",
/* pixels */
"@ + + + X X X X . + + + + + o @ @ @ % = 1 1 4 4 5 8 8 5 8 * + + + * * = = * * * # + + + + + - 5 5 5 ",
"C y 9 8 - 7 3 , = = + + + o * { :.1.8.8.4.,.:.@.@.:.1.1.@., + 5 9 W W W u 9 h 9 8 1 , , X 3 i.i.s.y.",
"1 3 2 7 6 * 1 3 6 7 8 7 s + > :.t.7.3.:.` _ K N h h j l R , + 8 W E W / t , , , > < 2 , + 4 q.[ { +.",
"1 2 6 7 7 > & & , 6 s d d % = :.w.>.X.^ Y J N 0 j s 6 s ) , + 8 h h h E a 3 , , < 1 2 , + 8 >.T 3 - ",
"6 7 8 j 6 > : > < s 7 6 > $ * > 1 5 w w 0 8 7 7 2 2 7 0 1 = @ 7 9 h h h D 9 < > < 2 6 > + h [ ; > 1 ",
"h c h 7 2 > > < 2 < : + $ + , 8 8 6 = & & < 2 1 2 7 1 3 8 = + 7 d d h h c M 6 1 < 2 6 < + 8 < & < 1 ",
"U J c 7 2 > : % $ : : > > + : : 4 ) y 7 > % & 1 2 2 2 8 7 # $ 7 h f h d d d 7 < 2 2 6 < + > $ 1 1 8 ",
"$ = : : $ + $ O + O o + + + + + & & q 5 1 % @ @ % & = + o X o O * > > : > > > - > : $ + . o o o o O ",
"o o o o o X X   . X       o o o o o   o   . X o O @ % = * # # + o X . X   X o O o + O O + + + + + X ",
"@ % = 7 1 o + - = & & & : : % : % % + $ @ O + @ > [ { X.{ / ~ W y e 9 8 8 5 8 e y u p W a / / / p % ",
"8 0 K < 1 o & 2 < < > > < < < < < 2 < < < 1 = o q ) e C ` &.8.3.#._ ' %.;.:.%.q.9.9.5.' W p U #.K = ",
"7 l 7 < < + > 7 s < > < 2 2 2 2 2 2 < > < < 1 o u y c J T ^ W 3 > < 2 2 8 8 0 ) -.q.+.R F e d 7 0 = ",
"s 7 < 2 < O 7 0 s d h d s 7 j d s 7 : > < 6 8 + F m h V ( ` 2 > 2 2 2 7 s 6 0 K W | ' K m 9 8 6 8 - ",
"6 < 2 2 < $ y V M M M c M M M D T : > 2 7 8 C $ 8 h 7 l J U > < 2 6 s s s 8 i y p ` R y c 8 7 6 7 = ",
"< 2 < < < $ % i ( E ( ( ( ( U 6 : = 6 7 0 c W @ 7 8 7 j N j < 2 2 7 7 6 7 G 8 6 2 C F y 8 8 7 2 2 $ ",
"6 2 > > 2 + O 6 7 9 ..@...F , & > 6 8 d 7 ; * @ * 1 7 7 h 7 < < 1 1 < < < % % % $ # - - - > 1 , - @ ",
"+ # % = + X + . X O + + % # & @ o . . .         X   . X . X . o X X .             .   . . o . . . . ",
"% # + + + = 3 4 4 3 3 3 3 @ @ 3 3 3 3 9 u F u R p 5 X a W u u y y ' 3 a u u u K F u y W ~ ( ..~ R m ",
"2 , , > = 8 ^ V t A F R -.- ; q.7.1./ E C l N l K ~ + p ( T V j l 0 = 5.:.&.4.0.>.c 7 8 J ..%.0 7 7 ",
"6 7 7 1 , = > 8 d 8 6 6 t 4 ; ' U F c 9 0 l l l 7 ~ # 1 0 J J V e > * ) ( ( O.J 2 < 2 7 l N 1 : , 6 ",
"6 2 2 7 7 3 > > , 2 2 < 5 q ; ) J 6 7 j j 8 7 6 7 1 # 0 > & V 0 2 1 > K N J 2 1 2 < 2 l l 0 % < < 6 ",
"2 2 < > 0 0 6 < < > > 2 1 4 & K N 6 j j s 7 7 7 4 @ # K 8 : 7 7 1 7 - i j 2 2 2 2 2 2 l l 7 : < 2 6 ",
"> , < > 4 W m d 6 2 < > > 1 % y f s s s 6 2 1 > & % @ 0 7 : % 2 7 K = 0 s 2 2 2 2 2 s l l 1 < 2 2 7 ",
"* + % : - # % = * % % $ % - % 3 < 6 6 6 2 < > > > & @ 4 4 & $ @ # - = & = < > = > = & & = # % % & > ",
"+ + @ % # + + + O O O O + + @ X           X         . X . .   . .   o   X X X X X X X X X X O * # @ ",
"4.4.:.5.:.{ ] / W ~ ] ;.] a [ a   & @ @ @ O @ @ % % % < < $ $ & & O 0 w i i y i y w 1 2 0 ; 5 u.w.r.",
"@.5.u.#.M h 4 3 6 7 9 R =.=.4 y @ 1 i 0 0 i ' ' 0 < < < i ) 4 > = @ 0 6 7 0 7 l 0 1 2 7 0 4 4 ` [ =.",
"~ { +.U c 8 7 1 2 8 8 D / u 3 y & 1 7 7 7 ) | R 0 < < 1 G K < > > $ 0 0 0 N N 1 < 7 7 0 i 4 ; K ) 8 ",
"W { ^ K b 8 8 6 4 8 5 5 5 5 1 5 & 2 i i U +.[ D 8 2 , 7 0 0 1 2 > @ i p K 7 & & 1 8 V p p 7 * y i 6 ",
"% % = * = % # @ @ + + + + + O + @ # % % * = = = % * % % & & $ # @ @ % % @ O o X o + @ @ @ @ O @ @ X ",
"; ; 3 5 8 9 y 9 3 - X + 5 u t # + = 3 4 4 3 3 3 3 7 8 4 5 5 4 1 + # @ $ & = & @ X ; - % % & & % % = ",
"^ ' :.u 9 8 F #.r.] + - u.-.y % + =.8.t.r.r.r.:.D t e e K ' q.[ @ 1 0 i i 0 1 % * ' :.' U F c h e e ",
"0.q.U 1 = < 1 0 ) ) - - R 8 7 & @ ^ J #.t.6.i 5 6 1 1 2 7 l c e + < J V 0 7 2 & < K W K F c 0 8 7 7 ",
"w.^ N 2 1 < 1 2 y p 1 ; p 3 6 & + e J X.=.q 0 4 4 1 2 0 8 8 i 8 $ > K 8 0 7 2 = ; T T R V 1 > 6 6 7 ",
">.E V 7 < < 1 2 0 q ; % w 1 1 = + 8 K [ i q 5 6 2 2 2 0 e i y 7 $ > N 0 8 7 0 - > p Y K y 7 8 7 6 s ",
"1 , > = % $ % $ @ O % + > & & & o & , 8 1 ; > = & $ + + @ + @ @ o > $ & % % % # & 3 3 6 1 > > = % & ",
". . o O O O o . X @ = - % X X X     X X + + + O O O o o @ $ % % > % o o o .   X + X X X X X o o o o ",
"= + 7 l 0 2 : O [ a.p.q.} ' R y 0 F ' { +.[ 3 3 i i R { / ..C C ^ ' ~ % 1 y y t 9 y y y y y e 9 e 0 ",
"< @ 7 0 0 2 < + 4 _ K C J c i 8 7 1 1 1 2 7 7 ; [ _ X.4.:.1 > 1 6 s V # 4 %.q.u.9.{ F l 8 7 7 7 8 c ",
"> $ 0 j 7 2 2 O 1 [ ..( U i 1 = = < 1 7 8 e 5 * _ Y ` &.' 1 < 2 6 2 8 & 4 X.>.u.[ R e 8 7 6 1 2 7 8 ",
"% O @ 1 1 < = X = 4 6 ; % @ $ & = 1 5 0 q q = X = 3 5 8 4 - > > < = 1 % * 1 4 5 ; ; 1 - > > > > > 1 ",
"O O X X . O O X o O o o X X X @ + + o o X X X X + + + o . . X . X X X @ X O + O O o O O o O O O + + ",
"c e 0 0 0 4 1 & % $ $ O * =.q.q.8.3.{ ~ / a / / { :.:.~ 9 + + & > 1 2 6 6 4 3 7 > @ 1 2 1 % @ p &.&.",
"N J i 4 4 3 > $ & > < : - ~ E u M / ~ ( W R R D R D E ~ 8 * > ( _ Y K V i 6 6 0 3 & 0 0 7 < $ _ ..( ",
"> % # % # % & > < < 2 % 4 R U K D ~ E D D J M J t 8 1 > 7 , , <.X.( Y l > 7 i K 1 & Y y l < $ ` ~ U ",
"& & > > < 1 < < < 2 0 % 4 U C C 9 8 8 8 A F m 3 = * > > d < , 1.7.,.K 3 0 p C p 1 > ' ^ V = % ' ~ R ",
"> > < 2 2 1 6 6 2 1 @ @ > W e 8 h 8 2 , , , > , 1 , = & + + + + - * + @ @ X X X O * # % & % % % 1 3 ",
"o . o o X X X X X X X o @ @ % % # + # & $ + + + + o o o + o + + @ % % @ % @ % % % % % * * = = & * % ",
"1 , + . 5 t y ~ +.a + o O O + + o + + + + + + + # $ : : : $ + 9 { ;.#.{ ~ ~ ' ' / #.1.1.1.:.,.7.w.F ",
"a 8 % @ 9.5.~ C Y #.@ + > > > > > > 1 1 2 , 7 + > > > < < < % 4.g.d.7.C 0 l J U ' ..:.7.O.M 7 6 y c "
};
